<?xml version="1.0" encoding="utf-8"?>
<!-- Generator: Adobe Illustrator 18.0.0, SVG Export Plug-In . SVG Version: 6.00 Build 0)  -->
<!DOCTYPE svg PUBLIC "-//W3C//DTD SVG 1.1//EN" "http://www.w3.org/Graphics/SVG/1.1/DTD/svg11.dtd">
<svg version="1.1" id="iconmonstr" xmlns="http://www.w3.org/2000/svg" xmlns:xlink="http://www.w3.org/1999/xlink" x="0px" y="0px"
	 viewBox="0 0 200 200" style="enable-background:new 0 0 200 200;" xml:space="preserve">
<style type="text/css">
	.st0{fill:#262E3E;}
</style>
<path id="speech-bubble-26" class="st0" d="M83.331,25.018c36.758,0,66.665,23.738,66.665,52.912
	c0,25.292-25.244,52.586-66.038,52.586c-13.167,0-22.648-2.645-30.981-4.671c-8.048,4.939-10.465,6.778-25.048,11.441
	c3.458-12.646,3.019-18.18,2.758-26.529c-6.982-8.341-14.021-17.244-14.021-32.828C16.666,48.756,46.573,25.018,83.331,25.018z
	 M83.331,8.336C39.322,8.336,0,37.721,0,77.931c0,14.257,5.127,28.254,14.209,39.127c0.391,12.727-7.088,30.98-13.843,44.27
	c18.066-3.255,43.766-10.481,55.411-17.627c9.838,2.409,19.27,3.507,28.181,3.507c49.193,0,82.705-33.649,82.705-69.277
	C166.663,37.501,127.072,8.336,83.331,8.336z M179.456,101.448c-1.343,4.069-3.012,8.008-5.005,11.8
	c13.972,10.515,18.806,26.879,3.865,44.71c-0.171,6.209-0.407,8.74,1.147,15.543c-7.43-2.555-8.154-3.263-13.875-6.779
	c-17.725,4.322-35.538,5.802-50.74-7.128c-4.687,1.326-9.537,2.319-14.501,3.035c12.606,15.641,35.814,24.145,63.141,17.496
	c7.617,4.672,24.439,9.391,36.262,11.54c-4.419-8.707-9.31-20.654-9.066-28.995C205.309,145.197,203.543,117.382,179.456,101.448z
	 M54.165,70.093c-4.923,0-8.927,3.996-8.927,8.927s4.004,8.927,8.927,8.927s8.927-3.996,8.927-8.927S59.089,70.093,54.165,70.093z
	 M83.331,70.093c-4.923,0-8.927,3.996-8.927,8.927s4.004,8.927,8.927,8.927c4.923,0,8.927-3.996,8.927-8.927
	S88.255,70.093,83.331,70.093z M112.497,70.093c-4.923,0-8.927,3.996-8.927,8.927s4.004,8.927,8.927,8.927
	c4.923,0,8.927-3.996,8.927-8.927S117.421,70.093,112.497,70.093z"/>
</svg>
