<?xml version="1.0" encoding="utf-8"?>
<!-- Generator: Adobe Illustrator 18.0.0, SVG Export Plug-In . SVG Version: 6.00 Build 0)  -->
<!DOCTYPE svg PUBLIC "-//W3C//DTD SVG 1.1//EN" "http://www.w3.org/Graphics/SVG/1.1/DTD/svg11.dtd">
<svg version="1.1" id="iconmonstr" xmlns="http://www.w3.org/2000/svg" xmlns:xlink="http://www.w3.org/1999/xlink" x="0px" y="0px"
	 viewBox="0 0 200 200" style="enable-background:new 0 0 200 200;" xml:space="preserve">
<style type="text/css">
	.st0{fill:#262E3E;}
</style>
<path id="shopping-bag-6" class="st0" d="M25,183.333V75h25v12.5c0,2.303,1.863,4.167,4.167,4.167c2.303,0,4.167-1.863,4.167-4.167
	V75h50v12.5c0,2.303,1.863,4.167,4.167,4.167c2.303,0,4.167-1.863,4.167-4.167V75h25v29.875c2.726-0.423,5.493-0.708,8.333-0.708
	c2.84,0,5.607,0.285,8.333,0.708V58.333h-41.667v-25C116.667,14.925,101.742,0,83.333,0S50,14.925,50,33.333v25H8.333V200h107.064
	c-5.518-4.586-10.075-10.254-13.42-16.667H25z M58.333,33.333c0-13.786,11.214-25,25-25c13.786,0,25,11.214,25,25v25h-50V33.333z
	 M163.948,164.209c0,3.198-0.944,5.131-2.84,5.131c-1.978,0-2.987-2.152-2.954-5.131c0-2.857,0.888-5.135,2.954-5.135
	C163.192,159.074,163.948,161.312,163.948,164.209z M185.937,158.333l5.729-7.235l-7.894-4.87l2.865-8.728l-9.098-1.917l-0.35-9.167
	l-9.212,1.27l-3.499-8.501l-8.244,4.293L150,116.667l-6.233,6.812l-8.244-4.293l-3.491,8.501l-9.221-1.27l-0.333,9.167l-9.107,1.917
	l2.864,8.728l-7.902,4.87l5.729,7.235l-5.729,7.239l7.902,4.866l-2.864,8.728l9.107,1.921l0.333,9.163l9.221-1.27l3.491,8.504
	l8.244-4.297L150,200l6.233-6.812l8.244,4.297l3.499-8.504l9.212,1.27l0.35-9.163l9.098-1.921l-2.865-8.728l7.894-4.866
	L185.937,158.333z M132.259,152.548c0-5.083,3.141-8.944,8.098-8.944c4.972,0,7.78,3.598,7.78,8.46c0,5.965-3.825,9.073-8.016,9.073
	C135.717,161.137,132.259,157.894,132.259,152.548z M144.092,173.063h-3.605l16.61-29.46h3.646L144.092,173.063z M160.97,172.977
	c-4.37,0-7.837-3.247-7.886-8.589c0-5.087,3.149-8.948,8.106-8.948c4.988,0,7.78,3.593,7.78,8.464
	C168.97,169.865,165.153,172.977,160.97,172.977z M143.115,152.372c0,3.198-0.936,5.127-2.848,5.127
	c-1.953,0-2.994-2.144-2.994-5.127c0-2.852,0.936-5.132,2.946-5.132C142.317,147.241,143.115,149.479,143.115,152.372z"/>
</svg>
