<?xml version="1.0" encoding="utf-8"?>
<!-- Generator: Adobe Illustrator 18.0.0, SVG Export Plug-In . SVG Version: 6.00 Build 0)  -->
<!DOCTYPE svg PUBLIC "-//W3C//DTD SVG 1.1//EN" "http://www.w3.org/Graphics/SVG/1.1/DTD/svg11.dtd">
<svg version="1.1" id="iconmonstr" xmlns="http://www.w3.org/2000/svg" xmlns:xlink="http://www.w3.org/1999/xlink" x="0px" y="0px"
	 viewBox="0 0 200 200" style="enable-background:new 0 0 200 200;" xml:space="preserve">
<style type="text/css">
	.st0{fill:#262E3E;}
</style>
<path id="map-5" class="st0" d="M145.768,128.601c-3.605,0-7.129-0.724-10.441-2.157l3.89-9.013c2.083,0.895,4.28,1.351,6.551,1.351
	c1.848,0,3.678-0.309,5.428-0.919l3.231,9.269C151.644,128.108,148.731,128.601,145.768,128.601z M54.752,128.418
	c-3.108,0-6.177-0.55-9.107-1.628l3.394-9.208c1.839,0.675,3.759,1.017,5.712,1.017c2.165,0,4.281-0.419,6.283-1.237l3.727,9.082
	C61.572,127.755,58.212,128.418,54.752,128.418z M127.002,121.892l-13.826-7.874l4.858-8.537l13.834,7.877L127.002,121.892z
	 M73.21,121.728l-5.046-8.427l13.656-8.179l5.045,8.423L73.21,121.728z M105.859,109.989c-2.026-0.842-4.167-1.273-6.363-1.273
	c-1.921,0-3.809,0.333-5.616,0.989l-3.344-9.237c2.881-1.042,5.9-1.567,8.96-1.571c3.499,0,6.917,0.683,10.14,2.03L105.859,109.989z
	 M166.919,108.63c-4.452,0-8.065,3.61-8.065,8.069c0,4.456,3.613,8.069,8.065,8.069c4.459,0,8.073-3.613,8.073-8.069
	C174.992,112.24,171.378,108.63,166.919,108.63z M33.073,108.63c-4.46,0-8.073,3.61-8.073,8.069c0,4.456,3.613,8.069,8.073,8.069
	c4.459,0,8.072-3.613,8.072-8.069C41.146,112.24,37.532,108.63,33.073,108.63z M183.333,101.701v55.688L150,178.043v-36.377h-8.333
	v34.505l-33.333-24.043V125H91.667v27.128l-33.333,24.043v-34.505H50v36.377l-33.333-20.654V46.603L50,67.261V100h8.333V67.273
	l33.333-24.048v40.108h16.667V43.225l13.142,9.481c-2.823-5.839-4.809-12.651-4.809-21.028c0-0.968,0.097-1.917,0.155-2.877
	L100,16.667L53.792,50L0,16.667v150L53.792,200L100,166.667L146.207,200L200,166.667V69.853c-0.106,0.127-0.22,0.265-0.326,0.391
	C192.749,78.426,186.222,86.227,183.333,101.701z M200,31.677C200,14.181,184.163,0,166.667,0
	c-17.497,0-33.333,14.181-33.333,31.677c0,26.009,26.571,28.759,33.333,68.323C173.429,60.437,200,57.687,200,31.677z
	 M154.167,33.333c0-6.905,5.599-12.5,12.5-12.5c6.901,0,12.5,5.595,12.5,12.5s-5.599,12.5-12.5,12.5
	C159.766,45.833,154.167,40.238,154.167,33.333z M149.601,100c-1.766-8.264-4.557-14.368-7.934-19.454V100H149.601z"/>
</svg>
