<?xml version="1.0" encoding="utf-8"?>
<!-- Generator: Adobe Illustrator 18.0.0, SVG Export Plug-In . SVG Version: 6.00 Build 0)  -->
<!DOCTYPE svg PUBLIC "-//W3C//DTD SVG 1.1//EN" "http://www.w3.org/Graphics/SVG/1.1/DTD/svg11.dtd">
<svg version="1.1" id="iconmonstr" xmlns="http://www.w3.org/2000/svg" xmlns:xlink="http://www.w3.org/1999/xlink" x="0px" y="0px"
	 viewBox="0 0 200 200" style="enable-background:new 0 0 200 200;" xml:space="preserve">
<style type="text/css">
	.st0{fill:#262E3E;}
</style>
<path id="pen-3" class="st0" d="M112.272,59.965c-3.54-3.658-3.345-9.392,0.293-12.935l37.175-36.048
	c1.814-1.758,4.15-2.649,6.461-2.649c2.352,0,4.696,0.916,6.47,2.755L112.272,59.965z M51.156,151.811
	c-0.765,0.741-1.156,1.733-1.156,2.726c0,2.083,1.697,3.797,3.797,3.797c0.952,0,1.904-0.354,2.644-1.07l6.243-6.071l-5.278-5.448
	L51.156,151.811z M103.907,81.604l-21.371,20.711c-11.482,11.133-17.338,21.916-22.75,36.975l9.433,9.742
	c15.206-4.94,26.167-10.457,37.65-21.594l21.362-20.719L103.907,81.604z M166.219,17.778l-55.037,53.373L138.9,99.768l55.037-53.362
	c4.036-3.91,6.063-9.11,6.063-14.318C200,14.689,178.914,5.457,166.219,17.778z M150,112.215V175H16.667V75h66.772l17.147-16.667H0
	v133.333h166.667V96.061L150,112.215z"/>
</svg>
