<?xml version="1.0" encoding="utf-8"?>
<!-- Generator: Adobe Illustrator 18.0.0, SVG Export Plug-In . SVG Version: 6.00 Build 0)  -->
<!DOCTYPE svg PUBLIC "-//W3C//DTD SVG 1.1//EN" "http://www.w3.org/Graphics/SVG/1.1/DTD/svg11.dtd">
<svg version="1.1" id="iconmonstr" xmlns="http://www.w3.org/2000/svg" xmlns:xlink="http://www.w3.org/1999/xlink" x="0px" y="0px"
	 viewBox="0 0 200 200" style="enable-background:new 0 0 200 200;" xml:space="preserve">
<path id="generation-9_1_" style="fill:#FFFFFF;" d="M137.5,104.167c0,6.903-4.663,12.5-10.417,12.5
	c-5.753,0-10.417-5.597-10.417-12.5c0-6.903,4.663-12.5,10.417-12.5C132.837,91.667,137.5,97.263,137.5,104.167z M72.917,91.667
	c-5.753,0-10.417,5.597-10.417,12.5c0,6.903,4.663,12.5,10.417,12.5c5.753,0,10.417-5.597,10.417-12.5
	C83.333,97.263,78.67,91.667,72.917,91.667z M100,136.31c-19.792-12.114-14.071,17.462-41.667,5.327
	c4.167,16.765,29.216,19.608,41.667,9.51c12.451,10.098,37.5,7.255,41.667-9.51C114.071,153.772,119.792,124.196,100,136.31z
	 M200,110.938c0,14.705-8.212,33.256-26.156,40.886C156.761,179.108,132.387,200,100,200c-31.24,0-57.153-21.517-73.848-48.177
	C8.212,144.193,0,125.643,0,110.938C0,94.316,6.762,79.49,22.36,77.948l0.252-0.235c0.005-0.055,0.016-0.111,0.021-0.166
	c-2.079-16.211-2.818-41.003,5.995-50.391c4.729-5.037,10.139-6.987,17.059-4.706C56.471,7.745,74.468,0,98.785,0
	c38.715,0,54.602,20.143,68.141,37.167c7.439,9.355,16.408,18.736,33.074,18.215c-6.745,6.317-14.824,11.287-23.598,14.959
	c0.428,2.512,0.778,5.033,1.014,7.56C192.833,79.273,200,93.777,200,110.938z M178.499,95.39c-1.961-1.277-4.419-0.968-5.591-0.44
	c-5.498,2.446-11.718-1.599-11.718-7.617c0-3.989-0.288-7.978-0.831-11.918c-34.162,7.735-72.86-1.927-86.401-28.888
	c-19.792,3.125-32.085,19.628-35.243,41.84l-0.031,0.001c-0.723,5.688-6.545,8.827-11.584,6.582c-1.173-0.517-3.634-0.83-5.603,0.44
	c-8.334,5.427-7.445,34.867,12.948,41.768c1.863,0.631,3.442,1.9,4.46,3.585c14.238,23.574,33.459,42.59,61.096,42.59
	c27.647,0,46.867-19.03,61.092-42.59c1.025-1.685,2.604-2.954,4.467-3.585C185.958,130.251,186.832,100.791,178.499,95.39z"/>
</svg>
