<?xml version="1.0" encoding="utf-8"?>
<!-- Generator: Adobe Illustrator 18.0.0, SVG Export Plug-In . SVG Version: 6.00 Build 0)  -->
<!DOCTYPE svg PUBLIC "-//W3C//DTD SVG 1.1//EN" "http://www.w3.org/Graphics/SVG/1.1/DTD/svg11.dtd">
<svg version="1.1" id="Layer_1" xmlns="http://www.w3.org/2000/svg" xmlns:xlink="http://www.w3.org/1999/xlink" x="0px" y="0px"
	 viewBox="0 0 360 150" style="enable-background:new 0 0 360 150;" xml:space="preserve">
<style type="text/css">
	.st0{fill:#DDA20E;}
</style>
<g>
	<path class="st0" d="M274.667,114.145l-0.642-11.67h1.167V100h-10.384v2.474h1.167l-0.642,11.67
		c-1.703,1.109-2.734,2.988-2.734,5.06V140h14.801v-20.796C277.401,117.132,276.37,115.254,274.667,114.145L274.667,114.145z
		 M271.547,102.474l0.169,3.079h-3.433l0.169-3.079H271.547z M267.076,115.995l0.65-0.319l0.421-7.648h3.705l0.421,7.648l0.65,0.319
		c1.235,0.606,2.003,1.836,2.003,3.21v0.412h-9.853v-0.412C265.074,117.83,265.841,116.6,267.076,115.995L267.076,115.995z
		 M274.926,122.091v9.662h-9.853v-9.662H274.926z M265.074,137.526v-3.299h9.853v3.299H265.074z M265.074,137.526"/>
</g>
<g>
	<g>
		<path class="st0" d="M49.915,108.028c-3.117,0-6.106,0.836-8.711,2.403l6.4-6.399l-1.728-1.728l-6.399,6.399
			c1.566-2.605,2.403-5.593,2.403-8.711h-2.443c0,3.516-1.244,6.842-3.522,9.474c-0.772-0.458-1.656-0.703-2.577-0.703
			c-1.352,0-2.623,0.527-3.579,1.483c-0.121,0.121-0.237,0.249-0.345,0.382l-18.496,22.659c-1.32,1.617-1.201,3.951,0.276,5.428
			c0.766,0.766,1.784,1.188,2.867,1.188c0.932,0,1.842-0.324,2.562-0.912l22.659-18.496c0.132-0.108,0.261-0.224,0.382-0.345
			c1.666-1.666,1.925-4.214,0.778-6.155c2.633-2.279,5.958-3.523,9.475-3.523V108.028z M37.934,118.421
			c-0.063,0.063-0.13,0.124-0.199,0.18l-2.833,2.313l-2.954-2.954l-1.728,1.728l2.78,2.78l-12.065,9.848l-1.671-1.672l-1.728,1.728
			l1.497,1.497l-3.956,3.229c-0.285,0.233-0.646,0.361-1.016,0.361c-0.43,0-0.835-0.167-1.139-0.472
			c-0.587-0.587-0.635-1.514-0.111-2.156l8.93-10.939l2.138,2.138l1.728-1.728l-2.313-2.313l8.014-9.817
			c0.056-0.069,0.117-0.136,0.18-0.199c0.495-0.494,1.152-0.767,1.851-0.767c0.7,0,1.357,0.272,1.852,0.767l2.745,2.745
			C38.954,115.739,38.954,117.401,37.934,118.421L37.934,118.421z M37.934,118.421"/>
	</g>
</g>
<g>
	<path class="st0" d="M168.775,105.034c-5.704-3.293-12.18-5.034-18.73-5.034c-6.589,0-13.09,1.739-18.8,5.028l-1.088,0.634
		l0.645,1.067L150.011,140l19.832-34.35L168.775,105.034z M145.062,126.494l-2.051-3.551c0.38-0.34,0.877-0.537,1.399-0.537
		c1.156,0,2.096,0.94,2.096,2.096C146.506,125.43,145.899,126.219,145.062,126.494L145.062,126.494z M146.307,128.65
		c1.571-0.721,2.666-2.309,2.666-4.148c0-2.516-2.047-4.563-4.563-4.563c-0.96,0-1.882,0.306-2.644,0.847l-5.74-9.942
		c4.296-2.242,9.104-3.423,13.985-3.423c4.884,0,9.692,1.182,13.983,3.427l-13.983,24.219L146.307,128.65z M165.228,108.71
		c-4.666-2.46-9.9-3.756-15.217-3.756c-5.314,0-10.549,1.294-15.219,3.752l-1.235-2.139c5.068-2.686,10.742-4.101,16.488-4.101
		c5.708,0,11.358,1.416,16.418,4.106L165.228,108.71z M165.228,108.71"/>
	<path class="st0" d="M154.121,109.91c-2.516,0-4.563,2.047-4.563,4.563c0,2.516,2.047,4.563,4.563,4.563
		c2.516,0,4.563-2.047,4.563-4.563C158.684,111.957,156.637,109.91,154.121,109.91L154.121,109.91z M154.121,116.569
		c-1.156,0-2.096-0.94-2.096-2.096c0-1.156,0.941-2.096,2.096-2.096c1.156,0,2.096,0.941,2.096,2.096
		C156.217,115.629,155.277,116.569,154.121,116.569L154.121,116.569z M154.121,116.569"/>
	<rect x="142.495" y="111.272" class="st0" width="2.466" height="3.289"/>
	<rect x="151.362" y="120.842" class="st0" width="2.466" height="3.289"/>
</g>
<g>
	<path class="st0" d="M228.826,16.932c-0.757-0.757-1.764-1.174-2.834-1.174h-1.75v-1.75c0-1.07-0.417-2.077-1.174-2.834
		c-0.757-0.757-1.764-1.174-2.834-1.174c-1.071,0-2.078,0.417-2.834,1.174c-0.757,0.757-1.174,1.764-1.174,2.834v3.267l-5.018,5.018
		l-11.365,2.62c-2.316,0.534-4.433,1.708-6.121,3.396c-2.4,2.4-3.722,5.591-3.722,8.985c0,3.394,1.322,6.585,3.722,8.985
		c2.4,2.4,5.591,3.722,8.985,3.722c3.394,0,6.585-1.322,8.985-3.721c1.688-1.688,2.862-3.804,3.396-6.121l2.62-11.365l5.018-5.018
		h3.267c1.071,0,2.078-0.417,2.834-1.174c0.758-0.757,1.174-1.764,1.174-2.834C230,18.696,229.583,17.689,228.826,16.932
		L228.826,16.932z M212.676,39.602c-0.429,1.864-1.375,3.567-2.734,4.927c-1.933,1.933-4.502,2.997-7.235,2.997
		c-2.733,0-5.303-1.064-7.235-2.997c-1.933-1.933-2.997-4.502-2.997-7.235c0-2.733,1.064-5.303,2.997-7.235
		c1.36-1.36,3.063-2.305,4.927-2.734l11.043-2.545l3.781,3.781L212.676,39.602z M227.076,20.851c-0.29,0.29-0.675,0.449-1.085,0.449
		H221.7l-5.119,5.119l-3.001-3.001l5.119-5.119v-4.292c0-0.41,0.159-0.795,0.449-1.084c0.29-0.29,0.675-0.449,1.085-0.449
		c0.41,0,0.795,0.159,1.084,0.449c0.29,0.289,0.449,0.675,0.449,1.084v4.224h4.224c0.41,0,0.795,0.159,1.085,0.449
		c0.29,0.29,0.449,0.675,0.449,1.085C227.526,20.176,227.366,20.562,227.076,20.851L227.076,20.851z M227.076,20.851"/>
	<path class="st0" d="M199.576,41.923l-1.75-1.75l2.333-2.332l1.749,1.749L199.576,41.923z M199.576,35.325l-1.749-1.75l2.332-2.332
		l1.75,1.749L199.576,35.325z M199.576,35.325"/>
</g>
<g>
	<path class="st0" d="M101.247,21.819l-7.415-5.666V10h-7.662v6.153l-7.415,5.666c-3.725,2.846-5.862,6.962-5.862,11.292
		c0,4.035,1.802,7.819,5.076,10.654c2.928,2.535,6.723,4.035,10.796,4.288V50h2.474v-1.947c4.072-0.253,7.868-1.753,10.795-4.288
		c3.274-2.835,5.076-6.618,5.076-10.654C107.109,28.781,104.972,24.665,101.247,21.819L101.247,21.819z M88.763,18.766v26.627
		c-3.065-1.119-5.462-6.289-5.462-12.282c0-4.21,1.379-7.606,2.535-9.714C86.866,21.522,87.997,19.843,88.763,18.766L88.763,18.766z
		 M91.237,45.393V18.765c0.765,1.076,1.895,2.753,2.926,4.632c1.157,2.108,2.535,5.504,2.535,9.714
		C96.699,39.104,94.302,44.274,91.237,45.393L91.237,45.393z M91.357,12.474v3.053h-2.714v-3.053H91.357z M75.365,33.111
		c0-3.553,1.782-6.952,4.89-9.326l4.488-3.429c-0.357,0.583-0.721,1.205-1.076,1.851c-1.296,2.361-2.841,6.17-2.841,10.904
		c0,3.885,0.884,7.556,2.49,10.337c0.219,0.379,0.448,0.736,0.686,1.071C78.916,42.558,75.365,38.183,75.365,33.111L75.365,33.111z
		 M95.997,44.519c0.238-0.335,0.467-0.692,0.686-1.071c1.606-2.781,2.49-6.452,2.49-10.337c0-4.734-1.545-8.543-2.841-10.904
		c-0.355-0.647-0.719-1.268-1.076-1.851l4.488,3.429c3.108,2.374,4.89,5.773,4.89,9.326
		C104.635,38.183,101.084,42.558,95.997,44.519L95.997,44.519z M95.997,44.519"/>
</g>
<g>
	<path class="st0" d="M341.423,24.291h-2.556v-4.766h-1.169v-0.412c0-1.541-0.576-3.012-1.622-4.142
		c-0.916-0.989-2.119-1.641-3.431-1.869c-1.733-1.978-4.201-3.102-6.85-3.102c-2.649,0-5.117,1.124-6.85,3.102
		c-1.313,0.228-2.516,0.879-3.431,1.869c-1.046,1.13-1.622,2.601-1.622,4.142v0.412h-1.169V50h26.145v-4.766h2.556
		c3.229,0,5.856-2.627,5.856-5.856v-9.232C347.278,26.918,344.651,24.291,341.423,24.291L341.423,24.291z M315.196,22h21.196v5.773
		h-21.196V22z M316.365,19.113c0-1.872,1.46-3.46,3.324-3.615l0.539-0.045l0.333-0.426c1.269-1.623,3.177-2.554,5.234-2.554
		s3.964,0.931,5.233,2.554l0.333,0.426l0.539,0.045c1.863,0.155,3.323,1.743,3.323,3.615v0.412h-18.858V19.113z M315.196,47.526
		V30.247h21.196v17.279H315.196z M344.804,39.379c0,1.865-1.517,3.381-3.382,3.381h-2.556V26.765h2.556
		c1.865,0,3.382,1.517,3.382,3.382V39.379z M344.804,39.379"/>
</g>
</svg>
